HIERARCHY
ROOT Hips
{
	OFFSET -3.958830 18.904000 13.208200
	CHANNELS 6 Xposition Yposition Zposition Zrotation Yrotation Xrotation 
	JOINT LHipJoint
	{
		OFFSET 0.000000 0.000000 0.000000
		CHANNELS 3 Zrotation Yrotation Xrotation
		JOINT LeftUpLeg
		{
			OFFSET 1.800000 -1.400000 0.085000
			CHANNELS 3 Zrotation Yrotation Xrotation
			JOINT LeftLeg
			{
				OFFSET 2.215000 -6.000000 0.000000
				CHANNELS 3 Zrotation Yrotation Xrotation
				JOINT LeftFoot
				{
					OFFSET 2.500000 -6.900000 0.000000
					CHANNELS 3 Zrotation Yrotation Xrotation
					JOINT LeftToeBase
					{
						OFFSET 0.200000 -0.500000 1.950000
						CHANNELS 3 Zrotation Yrotation Xrotation
						End Site
						{
							OFFSET 0.000000 0.000000 0.000000
						}
					}
				}
			}
		}
	}
	JOINT RHipJoint
	{
		OFFSET 0.000000 0.000000 0.000000
		CHANNELS 3 Zrotation Yrotation Xrotation
		JOINT RightUpLeg
		{
			OFFSET -1.800000 -1.400000 0.085000
			CHANNELS 3 Zrotation Yrotation Xrotation
			JOINT RightLeg
			{
				OFFSET -2.215000 -6.000000 0.000000
				CHANNELS 3 Zrotation Yrotation Xrotation
				JOINT RightFoot
				{
					OFFSET -2.500000 -6.900000 0.000000
					CHANNELS 3 Zrotation Yrotation Xrotation
					JOINT RightToeBase
					{
						OFFSET -0.200000 -0.500000 1.950000
						CHANNELS 3 Zrotation Yrotation Xrotation
						End Site
						{
							OFFSET 0.000000 0.000000 0.000000
						}
					}
				}
			}
		}
	}
	JOINT LowerBack
	{
		OFFSET 0.000000 0.000000 0.000000
		CHANNELS 3 Zrotation Yrotation Xrotation
		JOINT Spine
		{
			OFFSET -0.087000 1.940000 -0.288900
			CHANNELS 3 Zrotation Yrotation Xrotation
			JOINT Spine1
			{
				OFFSET 0.000000 1.950000 0.060000
				CHANNELS 3 Zrotation Yrotation Xrotation
				JOINT Neck
				{
					OFFSET 0.000000 0.000000 0.000000
					CHANNELS 3 Zrotation Yrotation Xrotation
					JOINT Neck1
					{
						OFFSET 0.000000 1.600000 0.340000
						CHANNELS 3 Zrotation Yrotation Xrotation
						JOINT Head
						{
							OFFSET 0.000000 1.667000 -0.240000
							CHANNELS 3 Zrotation Yrotation Xrotation
							End Site
							{
								OFFSET 0.000000 0.000000 0.000000
							}
						}
					}
				}
				JOINT LeftShoulder
				{
					OFFSET 0.000000 0.000000 0.000000
					CHANNELS 3 Zrotation Yrotation Xrotation
					JOINT LeftArm
					{
						OFFSET 2.700000 1.550000 -0.730000
						CHANNELS 3 Zrotation Yrotation Xrotation
						JOINT LeftForeArm
						{
							OFFSET 5.450000 0.000000 0.000000
							CHANNELS 3 Zrotation Yrotation Xrotation
							JOINT LeftHand
							{
								OFFSET 3.450000 0.000000 0.000000
								CHANNELS 3 Zrotation Yrotation Xrotation
								JOINT LeftHandIndex1
								{
									OFFSET 0.750000 0.000000 0.000000
									CHANNELS 3 Zrotation Yrotation Xrotation
									End Site
									{
										OFFSET 0.000000 0.000000 0.000000
									}
								}
							}
						}
					}
				}
				JOINT RightShoulder
				{
					OFFSET 0.000000 0.000000 0.000000
					CHANNELS 3 Zrotation Yrotation Xrotation
					JOINT RightArm
					{
						OFFSET -2.700000 1.550000 -0.730000
						CHANNELS 3 Zrotation Yrotation Xrotation
						JOINT RightForeArm
						{
							OFFSET -5.450000 0.000000 0.000000
							CHANNELS 3 Zrotation Yrotation Xrotation
							JOINT RightHand
							{
								OFFSET -3.450000 0.000000 0.000000
								CHANNELS 3 Zrotation Yrotation Xrotation
								JOINT RightHandIndex1
								{
									OFFSET -0.750000 0.000000 0.000000
									CHANNELS 3 Zrotation Yrotation Xrotation
									End Site
									{
										OFFSET 0.000000 0.000000 0.000000
									}
								}
							}
						}
					}
				}
			}
		}
	}
}
MOTION
Frames: 8
Frame Time: 0.016667
-15.691590 16.437730 10.111930 -4.225212 -42.611085 11.113040 -14.774043 11.881462 4.392315 -4.358514 -3.692725 -24.700542 -6.844867 1.631285 -6.773319 -0.445197 2.060797 3.984758 -0.053460 -0.004730 -0.216790 18.295354 -11.985357 3.565312 -10.043161 1.583077 9.476448 6.961002 -6.241038 6.098311 -0.637521 -5.431208 2.640545 -0.027970 0.517540 -0.002340 -2.813193 2.584709 -8.786021 1.840344 15.166482 5.693239 0.952700 12.155029 -23.486422 1.192012 -6.120605 -19.078188 -4.489604 5.976731 55.223668 -0.180200 4.010280 1.878820 7.155584 8.108650 -3.590179 -17.978985 8.474441 -1.593167 9.809581 -2.086406 0.517185 -4.461164 2.035800 0.227590 0.163840 -0.100480 0.183250 -11.729669 19.320893 13.931619 11.851801 25.046619 9.028995 10.018146 -20.133557 -1.094787 3.007819 -0.590033 -0.239580 0.392120 0.167040 0.133640 
-15.700580 16.429510 10.155090 -4.687065 -39.079213 13.505713 -14.836520 11.693923 4.399317 -4.495780 -4.181608 -27.216352 -7.507149 1.623671 -6.296323 -0.417589 1.856354 3.994059 -0.040950 -0.094890 -0.110830 18.325911 -11.868820 3.523916 -7.982467 0.654276 8.543029 7.241515 -6.135154 5.535584 -0.710504 -5.111903 2.718018 -0.163290 0.297740 -0.030570 -2.953916 2.583217 -8.956316 1.915146 15.992473 1.886799 -0.056357 13.157290 -24.510628 1.254014 -5.135390 -18.763073 -7.618640 2.180840 61.350362 1.061230 -2.582360 0.225300 0.088968 0.218695 2.098152 -9.128033 8.608840 -0.998445 7.700334 2.145737 0.086261 -4.193579 2.056842 0.410980 -0.058830 0.035480 0.119890 -2.991507 16.735772 11.512375 2.608603 16.943301 3.381803 6.205080 -19.411613 -0.548420 3.112044 -0.603711 -0.187980 0.329130 0.137490 0.081510 
-15.732440 16.458470 10.258120 -3.991451 -38.476235 14.458377 -14.868664 11.654697 4.446270 -5.090045 -4.668257 -27.666813 -7.680837 1.539166 -6.328416 -0.463050 1.805310 3.955377 0.027630 -0.086920 -0.000680 18.328023 -11.716337 3.554831 -7.825948 0.649262 8.528033 6.868789 -5.837907 3.738732 -0.790856 -4.980798 2.698505 -0.185820 0.168580 0.013140 -2.977967 2.344599 -9.027914 1.321899 15.580443 -0.593087 -0.065674 12.214187 -26.012609 1.744464 -5.075929 -18.548429 -9.675495 2.871493 64.169853 1.696610 -2.799110 -2.375810 -0.209620 -0.993326 3.780517 -4.472429 10.570326 -0.586396 6.087523 5.692115 -0.175368 -4.143849 2.047038 0.538520 -0.161510 0.129520 0.074470 -2.944229 15.854340 9.994972 -2.544549 17.478696 2.003110 5.327301 -21.479799 -0.541205 3.142671 -0.643035 -0.153470 0.266040 0.128980 0.020380 
-15.741260 16.456560 10.348750 -3.884606 -37.904609 15.072818 -14.924357 11.586001 4.373255 -5.178264 -4.671340 -27.290938 -8.941878 1.616611 -6.722803 -0.464780 1.922665 3.920971 0.020070 -0.106920 0.020940 18.337289 -11.479335 3.564977 -8.207755 0.865441 9.485500 7.981153 -5.899904 2.194169 -0.869436 -5.096846 2.664988 -0.208800 0.142910 0.023200 -3.070065 1.985631 -8.972586 1.985495 14.921275 -2.782639 -0.281243 11.766151 -24.364697 2.550508 -4.799936 -18.183551 -11.075881 2.886447 62.503224 0.737730 -2.349080 -4.700870 -2.702729 -3.048206 5.077276 1.861734 12.690432 0.179548 2.442420 10.107104 -0.768553 -4.121343 2.007085 0.608050 -0.183720 0.172460 0.067140 -1.301122 15.963293 9.468644 -9.530813 15.219349 0.401184 5.975188 -16.477558 -1.008764 3.018908 -0.652757 -0.169740 0.277740 0.129260 -0.003280 
-15.792760 16.431970 10.461050 -6.949236 -39.685826 18.056922 -14.730879 11.659734 4.379414 -3.112912 -4.055565 -27.122137 -7.971661 1.465066 -8.618911 -0.340508 2.035411 3.960522 -0.161580 -0.275640 -0.172260 18.503605 -11.557614 3.537029 -7.428446 0.747404 8.432290 6.990205 -5.700033 3.227437 -0.697870 -4.981186 2.777781 -0.289600 0.302350 -0.073810 -3.611217 2.057304 -8.979884 6.024663 15.410508 -4.797480 -1.909109 12.538810 -23.005425 1.509900 -5.710941 -19.076878 -12.845805 2.474069 57.379377 3.541970 -5.164800 0.335570 1.030755 -2.513012 5.163790 2.235757 11.808745 -0.256125 2.148385 13.369418 -0.595502 -4.313054 1.859610 0.459290 -0.110580 0.003600 0.081400 -3.191895 16.427799 10.952507 -10.901636 12.174992 0.101955 3.228023 -9.662976 -0.593250 3.013546 -0.597221 -0.228580 0.313530 0.184790 0.074020 
-15.821240 16.398200 10.533110 -6.782558 -38.585828 18.319295 -14.834721 11.533399 4.255199 -3.113499 -4.016118 -26.745022 -9.093857 1.508268 -8.988619 -0.437248 2.222639 3.911461 -0.123190 -0.281490 -0.053150 18.497358 -11.261723 3.573126 -7.133501 0.726862 10.227164 8.026277 -5.712715 0.900375 -0.824686 -5.154704 2.708408 -0.269380 0.264250 -0.046310 -3.618141 1.707913 -8.820351 6.190364 14.960912 -5.476044 -2.568707 12.203474 -21.141265 2.979467 -4.805690 -18.102122 -11.413935 0.394352 52.467078 0.505900 -4.084770 -5.804500 0.678926 -2.055390 4.786960 4.592026 10.960938 0.015640 2.572150 15.203772 -0.629420 -4.352107 1.766509 0.578310 -0.128830 0.062760 0.056030 -5.523018 15.194876 10.585262 -12.988808 10.581755 -0.080815 3.077024 -5.675370 -0.469221 2.873936 -0.557980 -0.283730 0.370950 0.184930 -0.002620 
-15.866640 16.466210 10.607440 -4.725548 -37.484392 17.858517 -14.914646 11.452553 4.320999 -4.061979 -4.178005 -25.959349 -11.439492 1.518888 -10.014143 -0.451428 2.330038 3.829719 -0.071320 -0.287970 0.097940 18.438173 -11.225970 3.482123 -8.037313 0.975796 9.411051 8.899254 -5.941812 1.401735 -0.902594 -5.009616 2.727920 -0.314460 0.071510 -0.054390 -3.450066 1.676320 -8.818159 3.247269 14.464331 -7.434414 -2.858963 10.908235 -22.883145 3.740283 -3.815764 -18.195039 -11.172159 -0.294053 56.632482 -1.138120 -3.433930 -11.314330 -2.874259 -4.861471 6.139255 11.119363 15.105177 0.921351 3.802350 14.844158 -0.765973 -4.095081 1.843022 0.787530 -0.277960 0.203340 -0.007850 -2.853962 15.772327 9.803977 -16.748076 9.057797 -0.815163 2.959622 -1.793725 0.028808 2.813865 -0.516234 -0.289080 0.345630 0.154790 -0.107930 
-15.892810 16.458050 10.705850 -7.490112 -37.755437 20.028047 -14.955383 11.597986 4.384638 -2.492415 -3.392674 -25.059762 -11.389429 1.385862 -12.784399 -0.521764 2.952548 3.714322 -0.340710 -0.503090 -0.182100 18.391455 -11.142773 3.415170 -6.130809 0.413612 8.711176 7.857367 -5.849237 2.309767 -0.659122 -5.089144 2.755574 -0.285210 0.490680 0.004040 -3.294237 1.361695 -8.803575 5.800309 13.784095 -7.906615 -1.408448 10.140475 -22.648541 4.782484 -5.140218 -18.153987 -10.971898 0.366685 46.484559 -6.793940 -0.472250 -4.791130 4.643690 1.252878 2.337923 3.392884 6.881380 0.071077 9.067561 23.736763 1.923717 -4.994842 1.460834 0.508050 0.116440 -0.088680 -0.028040 -12.605365 14.753607 10.711581 -11.799614 12.989226 1.636667 2.622871 3.363992 0.364937 2.487473 -0.601617 -0.431220 0.491220 0.412470 -0.046580 
